
      <svg data-logo="logo" xmlns="http://www.w3.org/2000/svg" viewBox="0 0 279 43">
        <g id="logogram" transform="translate(0, 1) rotate(0) "><path fill-rule="evenodd" clip-rule="evenodd" d="M17.3632 1.79679C18.1472 2.98379 18.8982 4.6918 19.4452 6.6408C19.9922 8.5898 20.2402 10.4408 20.1882 11.8658C20.1632 12.5758 20.0632 13.2028 19.8722 13.6888C19.6852 14.1678 19.3792 14.5838 18.8972 14.7218C18.4152 14.8598 17.9362 14.6658 17.5272 14.3568C17.1122 14.0428 16.7002 13.5608 16.3102 12.9698C15.5252 11.7828 14.7742 10.0748 14.2272 8.1258C13.6802 6.1768 13.4332 4.32579 13.4842 2.90079C13.5092 2.19079 13.6102 1.56379 13.8002 1.07779C13.9872 0.598792 14.2932 0.182795 14.7752 0.0447953C15.2582 -0.0922047 15.7362 0.100793 16.1452 0.409793C16.5602 0.723793 16.9722 1.20579 17.3632 1.79679ZM15.6622 1.04779C15.3422 0.805794 15.1262 0.776792 14.9942 0.814792C14.8622 0.851792 14.6922 0.991793 14.5452 1.36879C14.4002 1.73879 14.3072 2.2658 14.2832 2.9298C14.2362 4.2508 14.4662 6.01779 14.9972 7.90979C15.5282 9.80179 16.2502 11.4278 16.9772 12.5288C17.3422 13.0808 17.6952 13.4808 18.0102 13.7188C18.3312 13.9608 18.5462 13.9898 18.6782 13.9528C18.8102 13.9148 18.9802 13.7748 19.1272 13.3978C19.2722 13.0278 19.3652 12.5008 19.3892 11.8368C19.4362 10.5158 19.2062 8.74879 18.6752 6.85679C18.1442 4.96479 17.4222 3.3388 16.6952 2.2378C16.3302 1.6858 15.9772 1.28579 15.6622 1.04779ZM24.7962 0.409793C25.2052 0.100793 25.6842 -0.0922047 26.1662 0.0447953C26.6482 0.182795 26.9542 0.598792 27.1412 1.07779C27.3312 1.56379 27.4322 2.19079 27.4572 2.90079C27.5082 4.32579 27.2612 6.1768 26.7142 8.1258C26.1672 10.0748 25.4162 11.7828 24.6322 12.9698C24.2412 13.5608 23.8292 14.0428 23.4142 14.3568C23.0052 14.6658 22.5262 14.8598 22.0442 14.7218C21.5622 14.5838 21.2562 14.1678 21.0692 13.6888C20.8792 13.2028 20.7782 12.5758 20.7532 11.8658C20.7022 10.4408 20.9492 8.5898 21.4962 6.6408C22.0432 4.6918 22.7942 2.98379 23.5792 1.79679C23.9692 1.20579 24.3812 0.723793 24.7962 0.409793ZM24.2462 2.2378C23.5192 3.3388 22.7972 4.96479 22.2662 6.85679C21.7352 8.74879 21.5052 10.5158 21.5522 11.8368C21.5762 12.5008 21.6692 13.0278 21.8142 13.3978C21.9612 13.7748 22.1312 13.9148 22.2632 13.9528C22.3952 13.9898 22.6102 13.9608 22.9312 13.7188C23.2462 13.4808 23.5992 13.0808 23.9642 12.5288C24.6912 11.4278 25.4132 9.80179 25.9442 7.90979C26.4752 6.01779 26.7052 4.2508 26.6582 2.9298C26.6342 2.2658 26.5412 1.73879 26.3962 1.36879C26.2492 0.991793 26.0792 0.851792 25.9472 0.814792C25.8152 0.776792 25.6002 0.805794 25.2792 1.04779C24.9642 1.28579 24.6112 1.6858 24.2462 2.2378ZM15.9682 24.5698C16.4512 24.3988 16.9652 24.3598 17.3842 24.6368C17.8022 24.9128 17.9692 25.4018 18.0052 25.9148C18.0422 26.4358 17.9502 27.0648 17.7632 27.7498C17.3872 29.1238 16.5992 30.8158 15.4972 32.5088C14.3942 34.2018 13.1682 35.6028 12.0662 36.4978C11.5172 36.9438 10.9802 37.2778 10.4902 37.4518C10.0082 37.6238 9.4932 37.6628 9.0752 37.3858C8.6572 37.1088 8.48919 36.6198 8.45319 36.1068C8.41719 35.5858 8.5082 34.9578 8.6962 34.2728C9.0712 32.8978 9.85919 31.2068 10.9622 29.5138C12.0652 27.8208 13.2912 26.4188 14.3932 25.5248C14.9422 25.0788 15.4782 24.7438 15.9682 24.5698ZM14.8972 26.1458C13.8762 26.9748 12.7022 28.3068 11.6322 29.9498C10.5622 31.5928 9.8162 33.2088 9.4672 34.4838C9.2922 35.1228 9.2242 35.6548 9.2522 36.0508C9.2802 36.4558 9.40019 36.6418 9.51619 36.7188C9.63119 36.7948 9.84519 36.8318 10.2232 36.6978C10.5942 36.5668 11.0492 36.2928 11.5622 35.8768C12.5832 35.0478 13.7562 33.7148 14.8262 32.0718C15.8962 30.4288 16.6432 28.8138 16.9912 27.5388C17.1662 26.8988 17.2352 26.3668 17.2072 25.9708C17.1792 25.5658 17.0582 25.3808 16.9422 25.3038C16.8272 25.2278 16.6132 25.1898 16.2362 25.3238C15.8652 25.4558 15.4092 25.7298 14.8972 26.1458ZM23.2832 24.7018C23.7072 24.4328 24.2212 24.4828 24.7002 24.6638C25.1862 24.8468 25.7162 25.1928 26.2572 25.6488C27.3412 26.5648 28.5392 27.9908 29.6092 29.7058C30.6782 31.4198 31.4322 33.1268 31.7812 34.5088C31.9552 35.1968 32.0342 35.8278 31.9882 36.3478C31.9422 36.8598 31.7642 37.3458 31.3412 37.6138C30.9172 37.8828 30.4042 37.8328 29.9252 37.6518C29.4382 37.4688 28.9082 37.1228 28.3682 36.6668C27.2842 35.7508 26.0852 34.3248 25.0162 32.6098C23.9472 30.8948 23.1922 29.1888 22.8432 27.8068C22.6692 27.1188 22.5912 26.4878 22.6372 25.9678C22.6832 25.4558 22.8602 24.9698 23.2832 24.7018ZM24.4182 25.4118C24.0432 25.2708 23.8282 25.3038 23.7122 25.3778C23.5942 25.4518 23.4702 25.6348 23.4342 26.0388C23.3982 26.4348 23.4572 26.9678 23.6192 27.6108C23.9432 28.8928 24.6572 30.5228 25.6952 32.1868C26.7332 33.8508 27.8802 35.2068 28.8842 36.0558C29.3892 36.4818 29.8392 36.7648 30.2072 36.9038C30.5822 37.0448 30.7972 37.0118 30.9132 36.9378C31.0312 36.8638 31.1552 36.6808 31.1912 36.2758C31.2262 35.8808 31.1682 35.3478 31.0062 34.7048C30.6822 33.4228 29.9672 31.7928 28.9302 30.1288C27.8922 28.4648 26.7452 27.1088 25.7402 26.2598C25.2362 25.8338 24.7862 25.5508 24.4182 25.4118ZM19.1022 26.2618C19.4152 25.8558 19.8262 25.5428 20.3272 25.5478C20.8292 25.5528 21.2342 25.8738 21.5392 26.2858C21.8492 26.7048 22.1102 27.2838 22.3192 27.9618C22.7402 29.3228 22.9842 31.1758 22.9652 33.2008C22.9452 35.2258 22.6652 37.0728 22.2182 38.4258C21.9952 39.0998 21.7242 39.6728 21.4052 40.0858C21.0922 40.4918 20.6812 40.8048 20.1792 40.7998C19.6782 40.7958 19.2732 40.4738 18.9682 40.0618C18.6572 39.6428 18.3972 39.0638 18.1872 38.3858C17.7672 37.0248 17.5222 35.1728 17.5422 33.1468C17.5622 31.1218 17.8422 29.2748 18.2892 27.9228C18.5122 27.2488 18.7832 26.6748 19.1022 26.2618ZM19.0482 28.1738C18.6342 29.4278 18.3612 31.1888 18.3422 33.1548C18.3232 35.1208 18.5612 36.8868 18.9522 38.1498C19.1482 38.7828 19.3752 39.2678 19.6112 39.5858C19.8512 39.9098 20.0502 39.9988 20.1872 39.9998C20.3242 40.0018 20.5252 39.9168 20.7722 39.5968C21.0142 39.2838 21.2502 38.8038 21.4582 38.1748C21.8732 36.9198 22.1462 35.1588 22.1652 33.1928C22.1842 31.2268 21.9452 29.4608 21.5552 28.1988C21.3592 27.5648 21.1322 27.0808 20.8962 26.7628C20.6562 26.4378 20.4562 26.3488 20.3202 26.3478C20.1832 26.3458 19.9822 26.4308 19.7352 26.7508C19.4932 27.0638 19.2562 27.5438 19.0482 28.1738ZM14.2332 21.4498C14.7312 21.5688 15.1832 21.8168 15.3862 22.2758C15.5882 22.7338 15.4682 23.2358 15.2222 23.6878C14.9732 24.1458 14.5592 24.6258 14.0342 25.0998C12.9812 26.0518 11.4102 27.0448 9.57419 27.8688C7.73919 28.6918 5.95519 29.2028 4.54819 29.3548C3.84719 29.4298 3.21519 29.4188 2.71019 29.2978C2.21119 29.1788 1.75919 28.9318 1.55719 28.4728C1.35519 28.0148 1.47519 27.5128 1.72019 27.0608C1.96919 26.6018 2.38319 26.1228 2.90819 25.6478C3.96219 24.6968 5.5322 23.7028 7.3682 22.8798C9.2042 22.0558 10.9882 21.5458 12.3952 21.3938C13.0962 21.3178 13.7272 21.3288 14.2332 21.4498ZM12.4802 22.1888C11.1782 22.3298 9.4772 22.8108 7.6962 23.6098C5.9152 24.4078 4.42119 25.3598 3.44519 26.2418C2.95519 26.6848 2.61219 27.0938 2.42319 27.4418C2.23119 27.7968 2.23119 28.0198 2.28919 28.1498C2.34619 28.2788 2.5072 28.4268 2.8962 28.5198C3.2782 28.6118 3.80819 28.6298 4.46219 28.5588C5.76519 28.4188 7.4662 27.9368 9.2472 27.1388C11.0282 26.3398 12.5222 25.3878 13.4982 24.5058C13.9882 24.0638 14.3302 23.6538 14.5192 23.3058C14.7122 22.9508 14.7112 22.7288 14.6542 22.5988C14.5972 22.4698 14.4352 22.3208 14.0462 22.2278C13.6642 22.1368 13.1342 22.1188 12.4802 22.1888ZM28.0772 21.3938C29.4852 21.5458 31.2682 22.0558 33.1042 22.8798C34.9402 23.7028 36.5102 24.6968 37.5642 25.6478C38.0892 26.1228 38.5032 26.6018 38.7522 27.0608C38.9972 27.5128 39.1172 28.0148 38.9152 28.4728C38.7132 28.9318 38.2612 29.1788 37.7622 29.2978C37.2572 29.4188 36.6252 29.4298 35.9242 29.3548C34.5172 29.2028 32.7332 28.6918 30.8982 27.8688C29.0622 27.0448 27.4922 26.0518 26.4382 25.0998C25.9132 24.6258 25.4992 24.1458 25.2502 23.6878C25.0042 23.2358 24.8842 22.7338 25.0862 22.2758C25.2892 21.8168 25.7412 21.5688 26.2402 21.4498C26.7452 21.3288 27.3762 21.3178 28.0772 21.3938ZM26.4262 22.2278C26.0372 22.3208 25.8752 22.4698 25.8182 22.5988C25.7612 22.7288 25.7602 22.9508 25.9532 23.3058C26.1422 23.6538 26.4842 24.0638 26.9742 24.5058C27.9512 25.3878 29.4442 26.3398 31.2252 27.1388C33.0062 27.9368 34.7072 28.4188 36.0102 28.5588C36.6642 28.6298 37.1942 28.6118 37.5762 28.5198C37.9652 28.4268 38.1262 28.2788 38.1832 28.1498C38.2412 28.0198 38.2412 27.7968 38.0492 27.4418C37.8602 27.0938 37.5172 26.6848 37.0272 26.2418C36.0512 25.3598 34.5572 24.4078 32.7762 23.6098C30.9962 22.8108 29.2952 22.3298 27.9922 22.1888C27.3382 22.1188 26.8082 22.1368 26.4262 22.2278ZM8.0662 6.33779C9.3632 6.90879 10.9112 7.9358 12.4172 9.2778C13.9222 10.6188 15.1232 12.0418 15.8452 13.2688C16.2042 13.8808 16.4562 14.4628 16.5572 14.9748C16.6562 15.4798 16.6212 15.9958 16.2912 16.3718C15.9602 16.7498 15.4542 16.8478 14.9432 16.8108C14.4252 16.7728 13.8202 16.5918 13.1742 16.3078C11.8772 15.7368 10.3282 14.7088 8.8232 13.3678C7.3182 12.0258 6.11619 10.6028 5.39519 9.3758C5.03619 8.7648 4.7842 8.1818 4.6832 7.6698C4.5842 7.1648 4.61919 6.64979 4.94919 6.27279C5.28019 5.89579 5.7862 5.7968 6.2972 5.8338C6.8152 5.8718 7.4202 6.05279 8.0662 6.33779ZM5.55019 6.80079C5.45819 6.90579 5.39019 7.1178 5.46819 7.5158C5.54519 7.9058 5.75019 8.39979 6.08519 8.97079C6.75419 10.1078 7.8952 11.4688 9.3552 12.7698C10.8162 14.0718 12.2952 15.0468 13.4962 15.5758C14.0992 15.8408 14.6102 15.9848 15.0022 16.0128C15.4002 16.0418 15.5982 15.9488 15.6892 15.8448C15.7822 15.7388 15.8502 15.5268 15.7722 15.1298C15.6952 14.7398 15.4902 14.2448 15.1552 13.6748C14.4862 12.5368 13.3452 11.1768 11.8842 9.8748C10.4242 8.5728 8.94519 7.5988 7.74419 7.0698C7.14119 6.8038 6.63019 6.66079 6.23819 6.63179C5.83919 6.60279 5.64219 6.69579 5.55019 6.80079ZM34.6452 5.8338C35.1552 5.7968 35.6612 5.89579 35.9922 6.27279C36.3222 6.64979 36.3572 7.1648 36.2582 7.6698C36.1572 8.1818 35.9052 8.7648 35.5462 9.3758C34.8252 10.6028 33.6232 12.0258 32.1182 13.3678C30.6132 14.7088 29.0642 15.7368 27.7672 16.3078C27.1212 16.5918 26.5162 16.7728 25.9982 16.8108C25.4872 16.8478 24.9812 16.7498 24.6502 16.3718C24.3202 15.9958 24.2852 15.4798 24.3852 14.9748C24.4852 14.4628 24.7372 13.8808 25.0972 13.2688C25.8182 12.0418 27.0192 10.6188 28.5242 9.2778C30.0302 7.9358 31.5782 6.90879 32.8752 6.33779C33.5212 6.05279 34.1262 5.8718 34.6452 5.8338ZM34.7032 6.63179C34.3112 6.66079 33.8002 6.8038 33.1972 7.0698C31.9962 7.5988 30.5172 8.5728 29.0572 9.8748C27.5962 11.1768 26.4552 12.5368 25.7862 13.6748C25.4512 14.2448 25.2462 14.7398 25.1702 15.1298C25.0912 15.5268 25.1592 15.7388 25.2522 15.8448C25.3432 15.9488 25.5412 16.0418 25.9402 16.0128C26.3312 15.9848 26.8422 15.8408 27.4452 15.5758C28.6462 15.0468 30.1252 14.0718 31.5862 12.7698C33.0462 11.4688 34.1882 10.1078 34.8562 8.97079C35.1922 8.39979 35.3962 7.9058 35.4732 7.5158C35.5512 7.1178 35.4832 6.90579 35.3912 6.80079C35.2992 6.69579 35.1022 6.60279 34.7032 6.63179ZM14.4712 17.8818C14.8242 18.2538 15.0692 18.7068 14.9892 19.2018C14.9092 19.6968 14.5352 20.0528 14.0842 20.2978C13.6252 20.5468 13.0172 20.7238 12.3182 20.8368C10.9162 21.0618 9.05819 21.0408 7.07019 20.7328C5.08219 20.4248 3.30819 19.8828 2.04419 19.2438C1.41519 18.9258 0.891192 18.5738 0.533192 18.1968C0.180192 17.8258 -0.0647986 17.3718 0.0152014 16.8768C0.0942015 16.3828 0.4682 16.0268 0.9202 15.7808C1.3782 15.5318 1.98719 15.3548 2.68619 15.2428C4.08719 15.0178 5.94519 15.0388 7.93419 15.3468C9.92219 15.6548 11.6962 16.1968 12.9592 16.8348C13.5892 17.1528 14.1132 17.5058 14.4712 17.8818ZM12.5992 17.5488C11.4292 16.9578 9.74019 16.4358 7.81119 16.1368C5.88319 15.8378 4.1112 15.8238 2.8122 16.0328C2.1612 16.1368 1.65019 16.2948 1.30219 16.4838C0.948189 16.6768 0.827195 16.8638 0.805195 17.0038C0.782195 17.1428 0.837202 17.3558 1.1122 17.6458C1.3832 17.9298 1.8182 18.2338 2.4052 18.5298C3.5752 19.1208 5.2642 19.6428 7.1932 19.9418C9.1212 20.2408 10.8922 20.2548 12.1922 20.0468C12.8432 19.9418 13.3532 19.7848 13.7022 19.5948C14.0562 19.4018 14.1772 19.2148 14.1992 19.0748C14.2222 18.9358 14.1672 18.7228 13.8912 18.4338C13.6212 18.1488 13.1862 17.8458 12.5992 17.5488ZM27.6052 16.8348C28.8692 16.1968 30.6432 15.6548 32.6312 15.3468C34.6192 15.0388 36.4772 15.0178 37.8792 15.2428C38.5782 15.3548 39.1862 15.5318 39.6452 15.7808C40.0962 16.0268 40.4702 16.3828 40.5502 16.8768C40.6302 17.3718 40.3852 17.8258 40.0322 18.1968C39.6742 18.5738 39.1502 18.9258 38.5202 19.2438C37.2572 19.8828 35.4832 20.4248 33.4952 20.7328C31.5062 21.0408 29.6482 21.0618 28.2462 20.8368C27.5482 20.7238 26.9392 20.5468 26.4812 20.2978C26.0292 20.0528 25.6552 19.6968 25.5762 19.2018C25.4962 18.7068 25.7402 18.2538 26.0942 17.8818C26.4522 17.5058 26.9762 17.1528 27.6052 16.8348ZM26.6732 18.4338C26.3982 18.7228 26.3432 18.9358 26.3652 19.0748C26.3882 19.2148 26.5082 19.4018 26.8632 19.5948C27.2112 19.7848 27.7212 19.9418 28.3732 20.0468C29.6722 20.2548 31.4432 20.2408 33.3722 19.9418C35.3012 19.6428 36.9902 19.1208 38.1602 18.5298C38.7462 18.2338 39.1822 17.9298 39.4522 17.6458C39.7282 17.3558 39.7832 17.1428 39.7602 17.0038C39.7382 16.8638 39.6172 16.6768 39.2632 16.4838C38.9142 16.2948 38.4042 16.1368 37.7522 16.0328C36.4532 15.8238 34.6822 15.8378 32.7542 16.1368C30.8252 16.4358 29.1362 16.9578 27.9662 17.5488C27.3792 17.8458 26.9442 18.1488 26.6732 18.4338Z" fill="#F00511"/></g>
        <g id="logotype" transform="translate(45, 8)"><path fill="#000000" d="M21.65 27.38L21.65 27.38Q18.59 27.38 16.33 26.44Q14.06 25.50 12.80 23.65Q11.53 21.80 11.47 19.10L11.47 19.10L16.54 19.10Q16.64 20.39 17.31 21.25Q17.98 22.11 19.09 22.54Q20.20 22.97 21.60 22.97L21.60 22.97Q23.00 22.97 24.04 22.57Q25.07 22.16 25.65 21.43Q26.23 20.69 26.23 19.72L26.23 19.72Q26.23 18.85 25.71 18.26Q25.19 17.67 24.22 17.24Q23.24 16.81 21.84 16.49L21.84 16.49L19.04 15.79Q15.81 15.00 13.98 13.32Q12.15 11.64 12.15 8.87L12.15 8.87Q12.15 6.56 13.39 4.83Q14.63 3.11 16.79 2.15Q18.95 1.19 21.72 1.19L21.72 1.19Q24.54 1.19 26.64 2.16Q28.74 3.13 29.92 4.84Q31.10 6.56 31.14 8.80L31.14 8.80L26.10 8.80Q25.96 7.26 24.79 6.42Q23.62 5.59 21.67 5.59L21.67 5.59Q20.35 5.59 19.41 5.96Q18.47 6.34 17.98 7.00Q17.48 7.67 17.48 8.53L17.48 8.53Q17.48 9.47 18.05 10.09Q18.63 10.71 19.56 11.10Q20.49 11.48 21.57 11.74L21.57 11.74L23.87 12.30Q25.48 12.66 26.86 13.28Q28.25 13.89 29.29 14.79Q30.33 15.69 30.91 16.92Q31.48 18.15 31.48 19.75L31.48 19.75Q31.48 22.06 30.32 23.78Q29.15 25.50 26.95 26.44Q24.75 27.38 21.65 27.38ZM41.47 27.38L41.47 27.38Q38.55 27.38 36.43 26.18Q34.31 24.98 33.18 22.78Q32.04 20.57 32.04 17.55L32.04 17.55Q32.04 14.59 33.17 12.37Q34.30 10.15 36.36 8.90Q38.43 7.65 41.22 7.65L41.22 7.65Q43.10 7.65 44.72 8.25Q46.34 8.85 47.58 10.06Q48.81 11.26 49.50 13.07Q50.19 14.88 50.19 17.34L50.19 17.34L50.19 18.78L34.14 18.78L34.14 15.57L47.68 15.57L45.28 16.42Q45.28 14.93 44.83 13.83Q44.38 12.73 43.48 12.12Q42.58 11.52 41.25 11.52L41.25 11.52Q39.94 11.52 39.00 12.13Q38.07 12.75 37.59 13.80Q37.12 14.85 37.12 16.20L37.12 16.20L37.12 18.47Q37.12 20.13 37.67 21.26Q38.23 22.39 39.23 22.95Q40.23 23.51 41.56 23.51L41.56 23.51Q42.47 23.51 43.20 23.26Q43.93 23.00 44.46 22.50Q44.98 21.99 45.25 21.26L45.25 21.26L49.90 22.13Q49.44 23.70 48.29 24.89Q47.15 26.08 45.43 26.73Q43.71 27.38 41.47 27.38ZM51.42 1.54L56.55 1.54L56.55 27L51.42 27L51.42 1.54ZM56.78 7.89L69.26 7.89L69.26 11.81L56.78 11.81L56.78 7.89ZM65.26 27L60.15 27L60.15 6.42Q60.15 4.39 60.96 3.04Q61.77 1.69 63.17 1.01Q64.58 0.34 66.35 0.34L66.35 0.34Q67.57 0.34 68.57 0.54Q69.57 0.73 70.03 0.87L70.03 0.87L69.10 4.73Q68.78 4.65 68.34 4.56Q67.91 4.48 67.40 4.48L67.40 4.48Q66.23 4.48 65.75 5.03Q65.26 5.59 65.26 6.59L65.26 6.59L65.26 27ZM70.49 14.49L82.07 14.49L82.07 18.57L70.49 18.57L70.49 14.49ZM101.57 27L84.50 27L84.50 1.54L101.54 1.54L101.54 5.86L89.71 5.86L89.71 12.01L100.63 12.01L100.63 16.27L89.71 16.27L89.71 22.68L101.57 22.68L101.57 27ZM110.35 27.32L110.35 27.32Q108.15 27.32 106.38 26.19Q104.61 25.05 103.59 22.86Q102.56 20.66 102.56 17.48L102.56 17.48Q102.56 14.22 103.62 12.03Q104.68 9.84 106.44 8.75Q108.20 7.65 110.32 7.65L110.32 7.65Q111.94 7.65 113.02 8.20Q114.10 8.75 114.76 9.55Q115.43 10.35 115.75 11.11L115.75 11.11L115.92 11.11L115.92 1.54L121.05 1.54L121.05 27L116.01 27L116.01 23.94L115.75 23.94Q115.41 24.71 114.74 25.49Q114.06 26.27 112.98 26.79Q111.91 27.32 110.35 27.32ZM111.93 23.21L111.93 23.21Q113.22 23.21 114.15 22.49Q115.07 21.77 115.55 20.48Q116.03 19.19 116.03 17.46L116.03 17.46Q116.03 15.72 115.56 14.45Q115.09 13.17 114.16 12.47Q113.24 11.76 111.93 11.76L111.93 11.76Q110.57 11.76 109.66 12.49Q108.75 13.23 108.28 14.51Q107.82 15.79 107.82 17.46L107.82 17.46Q107.82 19.14 108.29 20.44Q108.76 21.74 109.68 22.47Q110.59 23.21 111.93 23.21ZM129.73 27.24L129.73 27.24Q127.75 27.24 126.26 26.38Q124.77 25.51 123.96 23.90Q123.15 22.28 123.15 20.04L123.15 20.04L123.15 7.89L128.28 7.89L128.28 19.16Q128.28 20.93 129.20 21.94Q130.12 22.95 131.73 22.95L131.73 22.95Q132.82 22.95 133.66 22.48Q134.50 22.01 134.97 21.11Q135.44 20.22 135.44 18.95L135.44 18.95L135.44 7.89L140.57 7.89L140.57 27L135.73 27L135.66 22.23L135.95 22.23Q135.20 24.64 133.65 25.94Q132.11 27.24 129.73 27.24ZM151.21 27.38L151.21 27.38Q148.32 27.38 146.23 26.14Q144.14 24.90 143.00 22.68Q141.86 20.47 141.86 17.53L141.86 17.53Q141.86 14.56 143.00 12.35Q144.14 10.13 146.23 8.89Q148.32 7.65 151.21 7.65L151.21 7.65Q152.90 7.65 154.34 8.10Q155.77 8.54 156.88 9.36Q158.00 10.18 158.71 11.36Q159.43 12.54 159.70 14.01L159.70 14.01L154.94 14.90Q154.78 14.15 154.46 13.56Q154.13 12.97 153.67 12.55Q153.21 12.13 152.60 11.91Q152.00 11.69 151.26 11.69L151.26 11.69Q149.89 11.69 148.96 12.42Q148.03 13.16 147.56 14.47Q147.09 15.79 147.09 17.52L147.09 17.52Q147.09 19.22 147.56 20.53Q148.03 21.84 148.96 22.59Q149.89 23.34 151.26 23.34L151.26 23.34Q152.00 23.34 152.61 23.11Q153.23 22.88 153.71 22.45Q154.18 22.01 154.51 21.39Q154.83 20.78 154.97 20.01L154.97 20.01L159.74 20.88Q159.46 22.40 158.75 23.59Q158.03 24.78 156.92 25.63Q155.81 26.49 154.36 26.93Q152.92 27.38 151.21 27.38ZM166.32 27.38L166.32 27.38Q164.50 27.38 163.06 26.74Q161.62 26.09 160.79 24.82Q159.96 23.55 159.96 21.65L159.96 21.65Q159.96 20.06 160.55 18.98Q161.14 17.91 162.15 17.26Q163.17 16.61 164.46 16.27Q165.75 15.93 167.17 15.79L167.17 15.79Q168.83 15.62 169.84 15.47Q170.86 15.33 171.33 15.01Q171.80 14.70 171.80 14.08L171.80 14.08L171.80 13.99Q171.80 13.17 171.46 12.61Q171.12 12.05 170.45 11.75Q169.79 11.45 168.81 11.45L168.81 11.45Q167.82 11.45 167.08 11.75Q166.35 12.05 165.89 12.54Q165.43 13.04 165.21 13.65L165.21 13.65L160.51 12.87Q161.00 11.21 162.15 10.05Q163.29 8.88 164.99 8.27Q166.69 7.65 168.81 7.65L168.81 7.65Q170.37 7.65 171.82 8.02Q173.27 8.39 174.43 9.16Q175.58 9.93 176.25 11.16Q176.93 12.39 176.93 14.13L176.93 14.13L176.93 27L172.08 27L172.08 24.35L171.90 24.35Q171.44 25.24 170.67 25.91Q169.90 26.59 168.82 26.98Q167.73 27.38 166.32 27.38ZM167.77 23.77L167.77 23.77Q168.98 23.77 169.90 23.29Q170.81 22.81 171.32 21.99Q171.84 21.17 171.84 20.16L171.84 20.16L171.84 18.10Q171.61 18.27 171.15 18.40Q170.69 18.54 170.13 18.64Q169.56 18.75 169.02 18.83Q168.47 18.92 168.04 18.97L168.04 18.97Q167.10 19.10 166.38 19.41Q165.67 19.72 165.27 20.22Q164.88 20.73 164.88 21.51L164.88 21.51Q164.88 22.25 165.26 22.75Q165.63 23.26 166.27 23.51Q166.91 23.77 167.77 23.77ZM177.18 7.89L188.51 7.89L188.51 11.81L177.18 11.81L177.18 7.89ZM179.81 21.86L179.81 3.35L184.94 3.35L184.94 21.41Q184.94 22.32 185.34 22.75Q185.75 23.19 186.68 23.19L186.68 23.19Q186.98 23.19 187.51 23.11Q188.04 23.04 188.31 22.97L188.31 22.97L189.04 26.81Q188.19 27.07 187.34 27.17Q186.50 27.27 185.73 27.27L185.73 27.27Q182.86 27.27 181.34 25.87Q179.81 24.47 179.81 21.86L179.81 21.86ZM194.70 27L189.57 27L189.57 7.89L194.70 7.89L194.70 27ZM192.13 5.40L192.13 5.40Q190.97 5.40 190.15 4.63Q189.33 3.86 189.33 2.77L189.33 2.77Q189.33 1.67 190.15 0.90Q190.97 0.13 192.13 0.13L192.13 0.13Q193.30 0.13 194.13 0.90Q194.95 1.66 194.95 2.77L194.95 2.77Q194.95 3.86 194.13 4.63Q193.30 5.40 192.13 5.40ZM205.33 27.38L205.33 27.38Q202.45 27.38 200.35 26.14Q198.25 24.90 197.11 22.68Q195.98 20.47 195.98 17.53L195.98 17.53Q195.98 14.56 197.11 12.35Q198.25 10.13 200.35 8.89Q202.45 7.65 205.33 7.65L205.33 7.65Q208.21 7.65 210.31 8.89Q212.40 10.13 213.54 12.35Q214.67 14.56 214.67 17.53L214.67 17.53Q214.67 20.47 213.54 22.68Q212.40 24.90 210.31 26.14Q208.21 27.38 205.33 27.38ZM205.33 23.34L205.33 23.34Q206.69 23.34 207.62 22.58Q208.54 21.82 209.00 20.50Q209.46 19.17 209.46 17.52L209.46 17.52Q209.46 15.82 209.00 14.51Q208.54 13.19 207.62 12.44Q206.69 11.69 205.33 11.69L205.33 11.69Q203.96 11.69 203.04 12.44Q202.13 13.19 201.67 14.51Q201.21 15.82 201.21 17.52L201.21 17.52Q201.21 19.17 201.67 20.50Q202.13 21.82 203.04 22.58Q203.96 23.34 205.33 23.34ZM221.10 15.94L221.10 15.94L221.10 27L215.97 27L215.97 7.89L220.81 7.89L220.89 12.66L220.59 12.66Q221.34 10.27 222.87 8.96Q224.40 7.65 226.82 7.65L226.82 7.65Q228.81 7.65 230.27 8.52Q231.74 9.38 232.57 11.00Q233.39 12.61 233.39 14.85L233.39 14.85L233.39 27L228.26 27L228.26 15.74Q228.26 13.96 227.34 12.95Q226.43 11.94 224.81 11.94L224.81 11.94Q223.73 11.94 222.88 12.41Q222.04 12.88 221.57 13.77Q221.10 14.66 221.10 15.94Z"/></g>
        
      </svg>
    